<svg xmlns="http://www.w3.org/2000/svg" viewBox="0 0 12.08 11.87"><g id="Layer_2" data-name="Layer 2"><g id="Layer_1-2" data-name="Layer 1"><path d="M12.08,8.88V7.57H11A3.34,3.34,0,0,0,9.78,5.46a3.79,3.79,0,0,0-1-.63,4.28,4.28,0,0,0-.93-.26V4.49L7.6,4.26l4-4.12V0h-3L6,2.66,3.45,0h-3V.14l4,4.12-.23.23v.08a3.79,3.79,0,0,0-.93.26,4.13,4.13,0,0,0-1,.63,3.43,3.43,0,0,0-.77.92,3.26,3.26,0,0,0-.42,1.18H0V8.88H1.11a3.27,3.27,0,0,0,.8,1.67H0v1.32H12.08V10.55H10.17A3.19,3.19,0,0,0,11,8.88ZM3.92,6.8A2,2,0,0,1,5,6.52H7.1a2,2,0,0,1,1.06.28,1.49,1.49,0,0,1,.64.76H3.28A1.58,1.58,0,0,1,3.92,6.8ZM5,9.93a1.76,1.76,0,0,1-1.05-.3,1.72,1.72,0,0,1-.62-.75H8.8a1.65,1.65,0,0,1-.61.75,1.8,1.8,0,0,1-1,.3Z"/></g></g></svg>